<?xml version="1.0" standalone="no"?>
<!DOCTYPE svg PUBLIC "-//W3C//DTD SVG 20010904//EN"
 "http://www.w3.org/TR/2001/REC-SVG-20010904/DTD/svg10.dtd">
<svg version="1.0" xmlns="http://www.w3.org/2000/svg"
 width="201.000000pt" height="201.000000pt" viewBox="0 0 201.000000 201.000000"
 preserveAspectRatio="xMidYMid meet">
<metadata>
Created by potrace 1.10, written by Peter Selinger 2001-2011
</metadata>
<g transform="translate(0.000000,201.000000) scale(0.100000,-0.100000)"
fill="#2683ec" stroke="none">
<path d="M174 1981 c-89 -40 -165 -143 -163 -220 l1 -36 7 31 c25 104 102 188
203 222 57 19 59 21 28 21 -19 0 -53 -8 -76 -18z"/>
<path d="M1765 1986 c121 -38 183 -100 221 -221 l13 -40 0 35 c1 44 -27 106
-68 152 -40 46 -123 88 -170 87 l-36 0 40 -13z"/>
<path d="M544 1440 c-53 -26 -79 -80 -71 -142 4 -33 15 -51 46 -80 34 -32 47
-38 85 -38 61 0 88 14 119 63 46 71 28 153 -45 197 -42 25 -82 25 -134 0z
m126 -16 c107 -64 60 -224 -65 -224 -53 0 -115 62 -115 115 0 95 100 156 180
109z"/>
<path d="M1345 1446 c-16 -7 -41 -26 -55 -41 -21 -22 -25 -36 -25 -87 0 -59 1
-61 44 -99 37 -33 51 -39 88 -39 56 0 95 23 122 70 40 71 19 151 -48 188 -44
25 -82 27 -126 8z m115 -22 c79 -47 79 -161 0 -208 -78 -45 -180 14 -180 104
0 91 102 149 180 104z"/>
<path d="M481 711 c-37 -34 -40 -72 -11 -116 11 -16 20 -26 20 -22 0 5 7 1 16
-7 25 -26 140 -86 232 -123 101 -40 202 -63 274 -63 58 0 178 19 193 30 6 4
28 13 50 20 40 13 144 63 199 97 41 25 96 84 102 109 6 22 -23 87 -41 93 -5 2
-16 6 -23 8 -6 3 -24 2 -40 -3 -15 -4 -30 -7 -34 -6 -5 1 -8 -4 -8 -11 0 -13
-67 -60 -136 -95 -75 -38 -201 -65 -279 -59 -134 11 -309 73 -380 137 -54 48
-91 51 -134 11z m119 -27 c88 -61 209 -113 300 -130 169 -32 312 0 471 105 99
65 118 68 152 29 9 -11 17 -29 17 -40 0 -48 -168 -160 -305 -204 -199 -64
-438 -32 -636 86 -126 75 -153 117 -104 165 32 33 43 32 105 -11z"/>
<path d="M11 249 c-1 -46 41 -130 87 -170 46 -40 108 -68 151 -69 36 0 39 7 5
13 -45 9 -74 20 -74 29 0 5 -4 7 -9 4 -4 -3 -27 11 -50 30 -42 36 -88 112
-102 169 l-7 30 -1 -36z"/>
<path d="M1986 250 c-18 -76 -86 -177 -109 -163 -6 3 -7 1 -3 -5 3 -6 -4 -14
-16 -18 -13 -4 -26 -11 -29 -16 -3 -5 -28 -15 -55 -23 -48 -13 -48 -13 -13
-14 47 -1 130 41 170 87 42 47 71 115 67 155 l-3 32 -9 -35z"/>
</g>
</svg>
